<?xml version="1.0" standalone="no"?>
<!DOCTYPE svg PUBLIC "-//W3C//DTD SVG 20010904//EN"
 "http://www.w3.org/TR/2001/REC-SVG-20010904/DTD/svg10.dtd">
<svg version="1.0" xmlns="http://www.w3.org/2000/svg"
 width="300.000000pt" height="90.000000pt" viewBox="0 0 300.000000 90.000000"
 preserveAspectRatio="xMidYMid meet">
<metadata>
Created by potrace 1.10, written by Peter Selinger 2001-2011
</metadata>
<g transform="translate(0.000000,90.000000) scale(0.100000,-0.100000)"
fill="none" stroke="red">
<path d="M1729 890 c-119 -15 -244 -98 -306 -201 -73 -122 -84 -307 -26 -430
40 -84 77 -130 142 -178 82 -62 135 -76 277 -76 119 0 121 0 197 38 122 60
202 156 236 282 6 22 11 77 11 121 0 293 -229 484 -531 444z m228 -42 c155
-49 264 -188 279 -356 25 -277 -178 -486 -457 -470 -70 4 -101 12 -153 36
-172 81 -265 256 -238 450 38 273 297 428 569 340z"/>
<path d="M1709 647 c-24 -13 -57 -42 -73 -65 -24 -34 -30 -54 -34 -116 -4 -67
-2 -81 22 -131 21 -41 39 -62 71 -81 171 -100 361 41 324 241 -19 106 -102
175 -209 175 -40 0 -70 -7 -101 -23z m204 -28 c53 -35 80 -82 85 -149 7 -96
-34 -177 -105 -206 -43 -18 -137 -18 -172 1 -81 41 -119 146 -90 248 13 48 72
114 113 127 48 15 129 5 169 -21z"/>
<path d="M18 883 c-15 -4 -15 -8 -1 -56 20 -70 209 -676 234 -755 l21 -62 133
0 c97 0 134 3 138 12 2 7 33 116 68 242 35 126 65 223 68 215 2 -8 32 -115 66
-239 l62 -225 135 -3 136 -3 21 63 c11 35 54 173 96 308 42 135 94 302 115
372 22 69 40 129 40 132 0 3 -58 6 -129 6 -142 0 -142 0 -159 -65 -19 -74
-121 -428 -124 -431 -2 -1 -28 88 -58 199 -30 111 -60 223 -68 250 l-14 47
-123 0 -124 0 -15 -52 c-44 -153 -116 -423 -116 -436 0 -34 -14 6 -76 223 -36
126 -70 237 -75 247 -9 16 -23 18 -122 17 -62 -1 -120 -3 -129 -6z m243 -53
c13 -47 140 -465 146 -480 6 -17 28 50 105 322 l53 188 110 -2 109 -3 23 -80
c90 -316 127 -435 133 -428 4 4 40 118 80 253 40 135 76 249 80 253 3 4 54 6
112 5 l106 -3 -13 -40 c-28 -86 -219 -701 -234 -755 -7 -25 -8 -25 -125 -25
l-118 0 -50 170 c-81 275 -100 336 -106 330 -3 -3 -38 -116 -77 -252 l-72
-248 -118 0 -117 0 -28 90 c-16 50 -69 221 -118 380 -50 160 -95 303 -101 318
-6 16 -11 30 -11 33 0 3 50 3 112 2 110 -3 112 -3 119 -28z"/>
<path d="M2367 883 c-4 -3 -7 -201 -7 -440 l0 -433 314 0 314 0 5 30 c4 16 4
73 0 125 l-6 95 -184 0 -183 0 0 315 0 315 -123 0 c-68 0 -127 -3 -130 -7z
m235 -335 l3 -313 180 -2 180 -2 3 -100 3 -101 -290 0 -291 0 -2 411 c-2 226
-1 413 1 415 2 2 51 4 108 4 l103 0 2 -312z"/>
</g>
</svg>
